<svg width="28" height="27" viewBox="0 0 28 27" fill="none" xmlns="http://www.w3.org/2000/svg">
<path fill-rule="evenodd" clip-rule="evenodd" d="M16.7762 1.11909H0.809559V0.214325H16.7762C19.0834 0.214325 21.485 0.761398 23.4284 1.89193C25.3776 3.0258 26.8843 4.76045 27.3263 7.12146C27.5774 8.46304 27.5741 9.7716 27.3251 11.1283C26.8744 13.5847 25.3301 15.4214 23.3174 16.634C21.3101 17.8435 18.8205 18.4449 16.4101 18.4449H0.809559V17.5402H16.4101C18.6817 17.5402 21.0046 16.9712 22.8505 15.8591C24.6911 14.7501 26.0409 13.1139 26.4352 10.965C26.6647 9.71412 26.6671 8.5174 26.437 7.28794C26.0539 5.24164 24.7498 3.70728 22.9735 2.67399C21.1914 1.63735 18.9528 1.11909 16.7762 1.11909ZM15.0633 4.26921H0.809559V3.36445H15.0633C17.0022 3.36445 19.2021 3.72314 20.9536 4.58792C22.7117 5.45597 24.0829 6.87448 24.1647 8.99104C24.1679 9.07265 24.1691 9.15427 24.1684 9.23594C24.1485 11.4647 22.7365 12.9928 20.8965 13.9403C19.0628 14.8845 16.7385 15.2948 14.6875 15.2948H0.809559V14.39H14.6875C16.6393 14.39 18.8114 13.9963 20.4823 13.1359C22.1469 12.2788 23.2478 11.0017 23.2636 9.22787C23.2642 9.16052 23.2632 9.09324 23.2606 9.02597C23.1962 7.35823 22.1363 6.18089 20.553 5.39919C18.9632 4.61421 16.9115 4.26921 15.0633 4.26921ZM0.809559 25.153C0.559716 25.153 0.357178 25.3556 0.357178 25.6054C0.357178 25.8553 0.559716 26.0578 0.809559 26.0578H27.0608C27.3107 26.0578 27.5132 25.8553 27.5132 25.6054C27.5132 25.3556 27.3107 25.153 27.0608 25.153H0.809559Z" fill="url(#paint0_linear_22_21)"/>
<defs>
<linearGradient id="paint0_linear_22_21" x1="13.9352" y1="0.214325" x2="13.9352" y2="26.0578" gradientUnits="userSpaceOnUse">
<stop stop-color="#877EFF"/>
<stop offset="0.461458" stop-color="#685DFF"/>
<stop offset="1" stop-color="#3121FF"/>
</linearGradient>
</defs>
</svg>
